<svg width="32" height="32" viewBox="0 0 32 32" fill="none" xmlns="http://www.w3.org/2000/svg">
  <!-- Brain outline -->
  <path d="M8 12C8 8.686 10.686 6 14 6C15.5 6 16.8 6.7 17.6 7.8C18.4 6.7 19.7 6 21.2 6C24.514 6 27.2 8.686 27.2 12C27.2 13 26.9 13.9 26.4 14.7C27.3 15.5 27.8 16.7 27.8 18C27.8 20.2 26.1 22 24 22C23.5 22 23 21.9 22.6 21.7C22.2 23.5 20.6 24.8 18.6 24.8C17.8 24.8 17.1 24.6 16.5 24.2C15.9 25.3 14.7 26 13.4 26C11.4 26 9.8 24.4 9.8 22.4C9.8 21.8 9.9 21.3 10.1 20.8C8.9 20.2 8 19 8 17.6C8 16.5 8.4 15.5 9.1 14.8C8.4 14 8 12.8 8 12Z" stroke="#00D4FF" stroke-width="1.5" fill="none"/>
  
  <!-- Neural connections -->
  <circle cx="11" cy="14" r="1.5" fill="#00D4FF"/>
  <circle cx="16" cy="12" r="1.5" fill="#00D4FF"/>
  <circle cx="21" cy="15" r="1.5" fill="#00D4FF"/>
  <circle cx="13" cy="18" r="1.5" fill="#00D4FF"/>
  <circle cx="19" cy="20" r="1.5" fill="#00D4FF"/>
  
  <!-- Connection lines -->
  <line x1="11" y1="14" x2="16" y2="12" stroke="#00D4FF" stroke-width="0.8" opacity="0.6"/>
  <line x1="16" y1="12" x2="21" y2="15" stroke="#00D4FF" stroke-width="0.8" opacity="0.6"/>
  <line x1="11" y1="14" x2="13" y2="18" stroke="#00D4FF" stroke-width="0.8" opacity="0.6"/>
  <line x1="13" y1="18" x2="19" y2="20" stroke="#00D4FF" stroke-width="0.8" opacity="0.6"/>
  <line x1="21" y1="15" x2="19" y2="20" stroke="#00D4FF" stroke-width="0.8" opacity="0.6"/>
</svg>